<?xml version="1.0" encoding="UTF-8" standalone="no"?>
<svg
    xmlns:svg="http://www.w3.org/2000/svg"
    xmlns:xlink="http://www.w3.org/1999/xlink"
    xmlns="http://www.w3.org/2000/svg"
    width="180"
    height="180"
    viewBox="0 0 180 180">
    <g>
        <path
            style="fill: #336d99; stroke: none;"
            d="m 0,-30 30,30 0,30 -30,-30 z" />
        <path
            style="fill: #022642; stroke: none;"
            d="m 0,0 30,30 0,30 -30,-30 z" />
        <path
            style="fill: #05375e; stroke: none;"
            d="m 0,30 30,30 0,30 -30,-30 z" />
        <path
            style="fill: #145a8f; stroke: none;"
            d="m 0,60 30,30 0,30 -30,-30 z" />
        <path
            style="fill: #336d99; stroke: none;"
            d="m 0,90 30,30 0,30 -30,-30 z" />
        <path
            style="fill: #05375e; stroke: none;"
            d="m 0,120 30,30 0,30 -30,-30 z" />
        <path
            style="fill: #336d99; stroke: none;"
            d="m 0,150 30,30 0,30 -30,-30 z" />
    </g>
    <g transform="translate(30)">
        <path
            style="fill: #022642; stroke: none;"
            d="m 0,-15 30,-30 0,30 -30,30 z" />
        <path
            style="fill: #336d99; stroke: none;"
            d="m 0,15 30,-30 0,30 -30,30 z" />
        <path
            style="fill: #145a8f; stroke: none;"
            d="m 0,45 30,-30 0,30 -30,30 z" />
        <path
            style="fill: #05375e; stroke: none;"
            d="m 0,75 30,-30 0,30 -30,30 z" />
        <path
            style="fill: #336d99; stroke: none;"
            d="m 0,105 30,-30 0,30 -30,30 z" />
        <path
            style="fill: #145a8f; stroke: none;"
            d="m 0,135 30,-30 0,30 -30,30 z" />
        <path
            style="fill: #022642; stroke: none;"
            d="m 0,165 30,-30 0,30 -30,30 z" />
        <path
            style="fill: #336d99; stroke: none;"
            d="m 0,195 30,-30 0,30 -30,30 z" />
    </g>
    <g transform="translate(60)">
        <path
            style="fill: #145a8f; stroke: none;"
            d="m 0,-30 30,30 0,30 -30,-30 z" />
        <path
            style="fill: #05375e; stroke: none;"
            d="m 0,0 30,30 0,30 -30,-30 z" />
        <path
            style="fill: #336d99; stroke: none;"
            d="m 0,30 30,30 0,30 -30,-30 z" />
        <path
            style="fill: #05375e; stroke: none;"
            d="m 0,60 30,30 0,30 -30,-30 z" />
        <path
            style="fill: #022642; stroke: none;"
            d="m 0,90 30,30 0,30 -30,-30 z" />
        <path
            style="fill: #336d99; stroke: none;"
            d="m 0,120 30,30 0,30 -30,-30 z" />
        <path
            style="fill: #145a8f; stroke: none;"
            d="m 0,150 30,30 0,30 -30,-30 z" />
    </g>
    <g transform="translate(90)">
        <path
            style="fill: #05375e; stroke: none;"
            d="m 0,-15 30,-30 0,30 -30,30 z" />
        <path
            style="fill: #336d99; stroke: none;"
            d="m 0,15 30,-30 0,30 -30,30 z" />
        <path
            style="fill: #145a8f; stroke: none;"
            d="m 0,45 30,-30 0,30 -30,30 z" />
        <path
            style="fill: #022642; stroke: none;"
            d="m 0,75 30,-30 0,30 -30,30 z" />
        <path
            style="fill: #336d99; stroke: none;"
            d="m 0,105 30,-30 0,30 -30,30 z" />
        <path
            style="fill: #145a8f; stroke: none;"
            d="m 0,135 30,-30 0,30 -30,30 z" />
        <path
            style="fill: #05375e; stroke: none;"
            d="m 0,165 30,-30 0,30 -30,30 z" />
        <path
            style="fill: #336d99; stroke: none;"
            d="m 0,195 30,-30 0,30 -30,30 z" />
    </g>
    <g transform="translate(120)">
        <path
            style="fill: #022642; stroke: none;"
            d="m 0,-30 30,30 0,30 -30,-30 z" />
        <path
            style="fill: #05375e; stroke: none;"
            d="m 0,0 30,30 0,30 -30,-30 z" />
        <path
            style="fill: #336d99; stroke: none;"
            d="m 0,30 30,30 0,30 -30,-30 z" />
        <path
            style="fill: #05375e; stroke: none;"
            d="m 0,60 30,30 0,30 -30,-30 z" />
        <path
            style="fill: #145a8f; stroke: none;"
            d="m 0,90 30,30 0,30 -30,-30 z" />
        <path
            style="fill: #336d99; stroke: none;"
            d="m 0,120 30,30 0,30 -30,-30 z" />
        <path
            style="fill: #022642; stroke: none;"
            d="m 0,150 30,30 0,30 -30,-30 z" />
    </g>
    <g transform="translate(150)">
        <path
            style="fill: #336d99; stroke: none;"
            d="m 0,-15 30,-30 0,30 -30,30 z" />
        <path
            style="fill: #145a8f; stroke: none;"
            d="m 0,15 30,-30 0,30 -30,30 z" />
        <path
            style="fill: #05375e; stroke: none;"
            d="m 0,45 30,-30 0,30 -30,30 z" />
        <path
            style="fill: #022642; stroke: none;"
            d="m 0,75 30,-30 0,30 -30,30 z" />
        <path
            style="fill: #336d99; stroke: none;"
            d="m 0,105 30,-30 0,30 -30,30 z" />
        <path
            style="fill: #022642; stroke: none;"
            d="m 0,135 30,-30 0,30 -30,30 z" />
        <path
            style="fill: #336d99; stroke: none;"
            d="m 0,165 30,-30 0,30 -30,30 z" />
        <path
            style="fill: #145a8f; stroke: none;"
            d="m 0,195 30,-30 0,30 -30,30 z" />
    </g>
</svg>
